<svg version="1.0" xmlns="http://www.w3.org/2000/svg"
  viewBox="0 0 700.000000 685.000000" preserveAspectRatio="xMidYMid meet">
  <g transform="translate(0.000000,685.000000) scale(0.100000,-0.100000)">
    <path d="M3240 6814 c-212 -22 -352 -43 -445 -64 -242 -56 -237 -55 -405 -110
      -350 -115 -703 -306 -1030 -554 -79 -61 -322 -279 -369 -332 -19 -22 -59 -65
      -88 -97 -311 -340 -603 -855 -728 -1287 -101 -345 -142 -594 -151 -913 -7
      -213 5 -457 30 -617 25 -159 43 -245 86 -420 37 -152 155 -461 240 -630 297
      -592 761 -1096 1317 -1432 202 -122 363 -199 598 -290 166 -63 260 -51 322 41
      l23 34 -2 351 c-3 344 -3 351 -23 349 -11 -1 -67 -9 -124 -17 -136 -21 -331
      -20 -440 0 -290 54 -491 207 -596 455 -96 224 -211 378 -360 479 -95 65 -145
      116 -145 150 0 36 16 48 83 62 78 16 167 -2 286 -59 77 -37 108 -59 175 -126
      46 -45 112 -128 150 -184 84 -128 143 -193 218 -245 191 -129 420 -152 678
      -68 102 33 105 35 119 103 31 141 90 272 159 348 24 27 41 53 37 59 -3 5 -23
      10 -43 10 -51 0 -245 35 -366 66 -257 64 -433 146 -616 285 -275 209 -438 503
      -517 934 -15 82 -18 151 -18 380 0 257 2 287 23 368 55 218 162 427 291 570
      l34 37 -21 63 c-35 107 -45 187 -45 347 1 170 18 274 70 430 l29 85 74 3 c181
      7 470 -102 778 -295 l103 -65 117 26 c184 42 202 45 292 57 182 23 252 28 455
      28 200 0 283 -5 475 -29 92 -11 115 -15 290 -55 l116 -26 134 82 c228 139 439
      231 620 269 74 16 191 10 200 -10 106 -214 131 -600 56 -831 l-24 -72 58 -71
      c124 -152 215 -335 265 -536 53 -214 39 -664 -31 -925 -154 -582 -521 -919
      -1154 -1061 -112 -25 -283 -54 -322 -54 -40 0 -48 -10 -23 -30 33 -27 110
      -147 135 -209 26 -66 53 -160 66 -236 4 -22 6 -293 5 -602 -2 -558 -2 -561 20
      -608 45 -96 149 -122 289 -71 369 132 676 303 990 549 273 215 478 432 707
      750 154 215 348 599 431 852 75 230 100 330 142 570 55 310 59 786 9 1070 -79
      451 -160 705 -338 1060 -138 273 -280 486 -478 716 -525 609 -1288 1036 -2063
      1154 -58 8 -132 20 -165 26 -58 10 -595 21 -665 13z"></path>
  </g>
</svg>