<svg version="1.0" xmlns="http://www.w3.org/2000/svg" viewBox="0 0 700.000000 704.000000"
  preserveAspectRatio="xMidYMid meet">
  <g transform="translate(0.000000,704.000000) scale(0.100000,-0.100000)">
    <path d="M415 7028 c-131 -24 -278 -134 -343 -255 -67 -127 -62 138 -62 -3228
      0 -3378 -5 -3105 65 -3230 36 -65 114 -145 182 -188 23 -14 72 -37 110 -49
      l68 -23 3060 0 c2602 0 3067 2 3110 14 174 49 316 186 365 351 20 66 20 100
      20 3127 0 2785 -1 3064 -16 3114 -55 185 -192 316 -379 364 -52 13 -411 15
      -3095 14 -1848 -1 -3055 -5 -3085 -11z m1282 -973 c147 -35 276 -123 359 -247
      215 -321 80 -749 -281 -889 -217 -84 -464 -31 -629 135 -226 227 -237 581 -25
      819 81 91 205 163 324 187 66 13 186 11 252 -5z m3328 -1579 c291 -52 487
      -159 642 -351 145 -180 227 -422 270 -796 16 -139 17 -253 15 -1188 -2 -569
      -5 -1038 -8 -1043 -3 -4 -232 -8 -509 -8 l-504 0 -4 963 c-4 919 -5 967 -25
      1070 -51 269 -161 406 -367 456 -70 18 -247 16 -329 -3 -198 -46 -336 -184
      -394 -396 -45 -162 -45 -166 -51 -1145 l-6 -940 -510 0 -510 0 0 1660 0 1660
      490 0 490 0 3 -220 c1 -121 6 -223 11 -228 5 -5 22 13 39 40 150 240 427 423
      722 477 107 20 403 15 535 -8z m-2950 -1721 l0 -1660 -510 0 -510 0 -3 1650
      c-1 908 0 1656 3 1663 3 10 111 12 512 10 l508 -3 0 -1660z" />
  </g>
</svg>